<svg width="767" height="178" viewBox="0 0 767 178" fill="none" xmlns="http://www.w3.org/2000/svg">
<path d="M16.6154 16.6154H146.769C154.416 16.6154 160.615 22.8145 160.615 30.4615V88.6154C160.615 128.38 128.38 160.615 88.6154 160.615H30.4615C22.8145 160.615 16.6154 154.416 16.6154 146.769V16.6154Z" fill="#111114"/>
<path d="M16.6154 16.6154H66.4615V66.4615H16.6154V16.6154Z" fill="#D63A1F"/>
<path d="M210.462 158.615V53.2153H232.662L234.062 67.0153C236.728 63.0153 239.728 59.9487 243.062 57.8153C246.528 55.5487 250.195 53.9487 254.062 53.0153C258.062 52.082 262.062 51.6153 266.062 51.6153C267.528 51.6153 268.862 51.6153 270.062 51.6153C271.395 51.6153 272.462 51.682 273.262 51.8153V75.0153H266.862C259.928 75.0153 254.062 76.3487 249.262 79.0153C244.462 81.682 240.862 85.482 238.462 90.4153C236.062 95.3487 234.862 101.415 234.862 108.615V158.615H210.462Z" fill="#111114"/>
<path d="M327.857 160.015C317.057 160.015 307.724 157.815 299.857 153.415C292.124 149.015 286.124 142.749 281.857 134.615C277.724 126.482 275.657 116.949 275.657 106.015C275.657 94.9487 277.79 85.4153 282.057 77.4153C286.324 69.282 292.324 62.9487 300.057 58.4153C307.79 53.882 317.057 51.6153 327.857 51.6153C338.524 51.6153 347.724 53.882 355.457 58.4153C363.19 62.9487 369.124 69.3487 373.257 77.6153C377.39 85.7487 379.457 95.3487 379.457 106.415C379.457 117.215 377.39 126.682 373.257 134.815C369.257 142.815 363.39 149.015 355.657 153.415C347.924 157.815 338.657 160.015 327.857 160.015ZM327.657 137.815C334.324 137.815 339.657 136.349 343.657 133.415C347.79 130.482 350.79 126.615 352.657 121.815C354.524 117.015 355.457 111.815 355.457 106.215C355.457 100.615 354.524 95.3487 352.657 90.4153C350.79 85.482 347.79 81.5487 343.657 78.6153C339.657 75.5487 334.324 74.0153 327.657 74.0153C320.99 74.0153 315.59 75.5487 311.457 78.6153C307.324 81.5487 304.324 85.482 302.457 90.4153C300.59 95.2153 299.657 100.482 299.657 106.215C299.657 111.815 300.59 117.082 302.457 122.015C304.457 126.815 307.457 130.682 311.457 133.615C315.59 136.415 320.99 137.815 327.657 137.815Z" fill="#111114"/>
<path d="M415.193 158.615L382.193 53.2153H409.193L430.393 131.815L452.993 53.2153H481.793L504.393 131.815L525.393 53.2153H551.993L518.993 158.615H489.793L466.993 82.6153L444.393 158.615H415.193Z" fill="#111114"/>
<path d="M558.868 158.615V17.2153H583.268V95.4153H598.468L626.268 53.2153H653.668L619.468 103.415L656.468 158.615H628.068L599.868 116.815H583.268V158.615H558.868Z" fill="#111114"/>
<path d="M662.047 158.615V53.2153H686.447V158.615H662.047Z" fill="#111114"/>
<path d="M733.447 53.6154H766.447V74.6154H733.447V144.615C733.447 152.347 727.179 158.615 719.447 158.615H708.447V28.6154H733.447V53.6154Z" fill="#111114"/>
<rect x="661.447" y="16.6154" width="25" height="25" fill="#D63A1F"/>
</svg>
