<svg xmlns="http://www.w3.org/2000/svg" width="24" height="24" viewBox="0 0 24 24" fill="none">
  <path d="M10.3 4.29995L2.90001 17.4C2.69999 17.7036 2.58653 18.056 2.57183 18.4193C2.55712 18.7826 2.64174 19.143 2.81657 19.4618C2.99139 19.7806 3.24982 20.0458 3.56406 20.2287C3.8783 20.4116 4.23645 20.5054 4.60001 20.5H19.4C19.7636 20.5054 20.1217 20.4116 20.436 20.2287C20.7502 20.0458 21.0086 19.7806 21.1834 19.4618C21.3583 19.143 21.4429 18.7826 21.4282 18.4193C21.4135 18.056 21.3 17.7036 21.1 17.4L13.7 4.29995C13.5206 4.01053 13.2704 3.77169 12.9729 3.60607C12.6754 3.44045 12.3405 3.35352 12 3.35352C11.6595 3.35352 11.3247 3.44045 11.0272 3.60607C10.7297 3.77169 10.4794 4.01053 10.3 4.29995Z" stroke="currentColor" stroke-width="1.25" stroke-linecap="round" stroke-linejoin="round"/>
  <path d="M12 9.5V14M12 17.25H12.01" stroke="currentColor" stroke-width="1.25" stroke-linecap="round" stroke-linejoin="round"/>
</svg>
